<?xml version="1.0" standalone="no"?>
<!DOCTYPE svg PUBLIC "-//W3C//DTD SVG 20010904//EN"
 "http://www.w3.org/TR/2001/REC-SVG-20010904/DTD/svg10.dtd">
<svg version="1.0" xmlns="http://www.w3.org/2000/svg"
 width="300.000000pt" height="225.000000pt" viewBox="0 0 300.000000 225.000000"
 preserveAspectRatio="xMidYMid meet">
<metadata>
Created by potrace 1.10, written by Peter Selinger 2001-2011
</metadata>
<g transform="translate(0.000000,225.000000) scale(0.100000,-0.100000)"
fill="#000000" stroke="none">
<path d="M195 1850 c3 -5 0 -7 -9 -4 -29 11 -37 -7 -12 -27 29 -23 42 -24 50
-4 8 21 -3 45 -21 45 -8 0 -11 -4 -8 -10z"/>
<path d="M101 1814 c5 -26 -3 -44 -18 -45 -10 -1 -2 -5 17 -8 20 -4 38 -2 43
4 5 7 9 6 15 -1 8 -12 42 -15 42 -3 0 11 -42 19 -67 13 -23 -6 -33 11 -12 18
7 2 5 9 -5 18 -10 7 -16 9 -15 4z"/>
<path d="M10 1766 c0 -8 -3 -22 -7 -31 -5 -16 -4 -15 15 1 25 21 29 44 7 44
-8 0 -15 -6 -15 -14z"/>
<path d="M218 1753 c-4 -14 2 -18 21 -19 14 0 35 -4 46 -8 11 -5 3 3 -17 18
-44 31 -44 31 -50 9z"/>
<path d="M160 1713 c-8 -2 -29 -11 -47 -19 -17 -8 -36 -14 -41 -14 -6 0 -14
-5 -18 -12 -4 -6 -3 -8 4 -5 14 9 43 -3 36 -14 -3 -5 -1 -9 5 -9 5 0 13 5 16
10 3 6 1 10 -4 10 -6 0 -11 5 -11 11 0 6 7 9 15 5 8 -3 15 -1 15 4 0 5 11 12
25 16 14 3 25 10 25 15 0 5 -1 9 -2 8 -2 0 -10 -3 -18 -6z"/>
<path d="M284 1673 c-18 -15 -18 -15 4 -8 12 3 38 1 58 -5 38 -13 55 -7 36 12
-17 17 -76 17 -98 1z"/>
<path d="M206 1649 c18 -20 26 -18 30 5 1 8 -8 14 -22 14 -24 0 -24 -1 -8 -19z"/>
<path d="M338 1643 c-10 -2 -18 -12 -18 -21 0 -20 36 -46 45 -32 3 5 1 12 -5
15 -6 4 -8 15 -5 26 4 10 5 18 3 18 -2 -1 -11 -3 -20 -6z"/>
<path d="M1083 1568 c4 -45 25 -42 -228 -28 -406 23 -548 30 -674 35 -74 3
-138 8 -142 11 -10 6 -17 -22 -21 -83 -4 -44 9 -56 30 -30 12 14 12 15 12 57
0 17 5 30 10 30 6 0 10 -8 10 -17 0 -13 3 -14 8 -6 10 15 64 19 111 8 27 -6
32 -5 26 5 -5 8 -3 11 6 8 8 -3 13 -11 11 -17 -1 -7 2 -10 8 -6 6 3 8 11 5 16
-4 5 9 8 27 6 21 -2 34 -8 36 -19 2 -12 -7 -17 -42 -20 -26 -2 -46 0 -46 4 0
5 -7 8 -16 8 -8 0 -13 -4 -9 -9 3 -5 1 -12 -5 -16 -16 -10 -12 -25 8 -25 13 0
14 2 3 9 -8 5 -9 11 -3 15 6 3 13 3 16 -2 3 -5 28 -7 56 -5 39 2 50 -1 50 -12
0 -8 5 -15 10 -15 6 0 10 7 10 15 0 18 16 20 23 3 3 -7 6 -8 6 -2 1 14 144 6
153 -10 6 -8 8 -8 8 0 0 7 12 10 30 8 16 -2 32 1 35 6 3 6 2 10 -4 10 -5 0
-12 8 -14 18 -4 16 -5 16 -6 0 -1 -25 -31 -23 -31 2 0 16 7 20 32 20 17 0 28
-3 25 -7 -17 -16 15 -31 50 -23 19 5 42 6 51 3 10 -4 13 -2 8 5 -4 7 -2 12 4
12 7 0 10 -16 7 -45 -2 -24 0 -42 5 -39 4 3 8 12 8 20 0 19 33 14 42 -6 6 -13
7 -12 7 2 1 10 8 15 19 13 9 -2 46 -4 82 -5 58 -1 63 -2 46 -15 -18 -13 -18
-14 3 -12 11 1 21 6 21 13 0 6 10 11 23 11 66 1 69 2 64 26 -5 19 -2 22 26 22
30 0 32 2 29 30 -6 47 -24 68 -19 23z m-702 -37 c1 -14 2 -13 6 2 3 12 15 17
44 17 30 0 39 -4 40 -17 0 -15 2 -15 7 -3 4 8 18 16 32 17 20 1 26 -4 28 -20
1 -22 -1 -22 -98 -16 -55 3 -103 8 -105 11 -3 3 -3 12 0 20 8 20 45 11 46 -11z
m449 -21 c0 -17 -7 -20 -43 -20 -36 0 -43 3 -44 20 -2 17 4 20 43 20 37 0 44
-3 44 -20z m76 4 c-3 -8 -1 -14 4 -14 6 0 10 7 10 15 0 23 16 18 17 -5 1 -16
-4 -20 -33 -20 -26 0 -34 4 -34 18 0 11 8 18 21 19 14 1 19 -3 15 -13z"/>
<path d="M1168 1588 c-17 -6 -28 -17 -28 -29 0 -18 1 -18 21 2 18 18 29 21 73
16 34 -4 57 -13 68 -27 9 -11 19 -16 22 -12 8 14 -27 41 -65 52 -41 12 -55 12
-91 -2z"/>
<path d="M2082 1560 c-6 -11 -25 -23 -42 -27 -29 -8 -29 -8 -6 -19 20 -9 26
-7 46 23 13 18 21 35 19 38 -3 2 -10 -5 -17 -15z"/>
<path d="M1745 1556 c36 -18 55 -20 55 -6 0 6 -11 10 -24 10 -13 0 -33 2 -43
5 -10 3 -4 -1 12 -9z"/>
<path d="M1617 1539 c3 -10 12 -19 20 -19 10 0 13 -9 8 -37 l-6 -38 15 40 c19
48 19 48 6 40 -6 -3 -13 0 -16 9 -9 23 -33 28 -27 5z"/>
<path d="M2123 1538 c-14 -31 -28 -98 -24 -116 1 -8 -5 -12 -16 -10 -10 2 -19
13 -21 26 -4 28 -7 28 -44 -3 -35 -30 -39 -30 -68 -7 -19 16 -21 22 -11 40 11
21 10 22 -24 22 -28 0 -35 -4 -35 -19 0 -29 -22 -41 -71 -36 -24 2 -47 4 -51
4 -5 1 -8 11 -9 24 -1 20 -2 19 -11 -6 -14 -40 -28 -23 -22 27 4 29 2 46 -6
51 -9 6 -10 0 -5 -23 3 -17 1 -40 -4 -51 -9 -17 -7 -22 11 -32 13 -7 40 -11
61 -10 21 1 37 -2 37 -8 0 -6 5 -11 11 -11 5 0 7 5 4 10 -4 6 8 10 27 10 19 0
39 5 45 11 8 8 17 5 33 -11 18 -18 28 -20 63 -15 23 4 45 13 49 19 5 7 8 5 8
-6 0 -17 19 -23 63 -19 9 1 17 -3 17 -9 0 -7 6 -8 19 0 11 5 39 10 63 11 32 0
38 2 23 8 -11 5 -42 7 -68 6 -55 -2 -63 6 -53 61 4 21 12 34 19 31 7 -3 10
-11 8 -18 -11 -42 -9 -50 4 -21 8 17 19 32 25 32 5 0 7 -15 5 -32 -4 -29 -4
-30 4 -8 14 39 12 47 -10 53 -13 4 -18 10 -13 18 4 7 3 10 -4 5 -6 -3 -12 1
-14 11 -2 13 -6 11 -15 -9z"/>
<path d="M1531 1537 c-1 -10 5 -17 12 -16 43 5 49 -12 15 -48 -18 -19 -19 -23
-5 -23 20 0 37 30 37 65 0 21 -4 25 -24 21 -14 -2 -27 1 -30 7 -2 7 -5 4 -5
-6z"/>
<path d="M2182 1533 c-16 -11 -16 -12 1 -13 9 0 17 4 17 10 0 5 13 7 29 4 16
-3 31 -2 35 4 9 15 -62 11 -82 -5z"/>
<path d="M1750 1526 c0 -10 6 -13 16 -9 13 5 14 0 9 -33 -5 -29 -4 -35 4 -24
17 24 13 58 -9 70 -16 8 -20 8 -20 -4z"/>
<path d="M1246 1521 c-4 -6 -13 -8 -20 -5 -8 3 -17 1 -20 -4 -5 -9 22 -9 54 0
8 3 12 3 8 1 -5 -3 -8 -11 -8 -19 0 -9 4 -13 9 -10 14 9 20 -31 7 -45 -9 -11
-8 -11 6 0 9 7 26 10 38 6 16 -5 20 -2 20 14 0 30 25 26 50 -9 20 -29 23 -29
99 -28 43 0 87 -4 98 -10 14 -8 23 -8 30 -1 7 7 17 7 30 -2 12 -7 28 -9 39 -5
17 7 17 9 -6 19 -14 6 -54 11 -90 11 -59 1 -65 3 -68 22 -3 22 -3 22 -27 -2
-13 -13 -33 -24 -44 -24 -23 0 -61 44 -61 71 0 14 -7 19 -25 19 -17 0 -25 -6
-25 -16 0 -15 -26 -43 -40 -44 -3 0 -5 15 -5 33 0 25 -5 33 -22 35 -11 2 -24
-1 -27 -7z"/>
<path d="M1982 1513 c-8 -3 -5 -11 10 -24 l23 -18 -22 -1 c-21 0 -40 -16 -30
-26 7 -7 67 24 67 35 0 5 -9 11 -21 14 -12 3 -18 10 -14 16 7 12 6 12 -13 4z"/>
<path d="M1450 1495 c0 -8 -8 -15 -17 -15 -16 0 -16 -1 0 -17 16 -16 18 -15
42 7 32 30 32 40 0 40 -16 0 -25 -6 -25 -15z"/>
<path d="M2210 1481 c-7 -17 -10 -36 -7 -43 2 -7 8 1 12 17 5 17 15 35 24 42
15 11 15 12 0 13 -9 0 -22 -13 -29 -29z"/>
<path d="M1105 1480 c3 -5 12 -10 20 -10 7 0 27 -13 43 -30 17 -17 41 -30 54
-30 21 1 20 2 -7 14 -16 7 -40 25 -52 40 -21 24 -72 38 -58 16z"/>
<path d="M1181 1481 c-24 -15 29 -42 64 -33 23 6 26 10 15 17 -8 5 -28 9 -45
8 -29 -2 -29 -2 -5 6 21 8 22 9 5 10 -11 0 -26 -3 -34 -8z"/>
<path d="M2339 1452 c6 -11 8 -22 4 -25 -3 -4 2 -9 11 -13 9 -3 16 -17 16 -30
0 -13 4 -24 9 -24 4 0 6 11 3 25 -4 23 -2 25 29 21 19 -2 62 -4 97 -5 39 -1
61 -5 57 -11 -3 -5 -1 -10 4 -10 16 0 13 21 -6 42 -15 17 -14 18 20 18 26 0
37 -4 37 -15 0 -8 14 -17 35 -21 19 -3 35 -11 35 -18 0 -8 2 -8 8 0 4 7 28 11
57 9 28 -1 83 -3 123 -4 57 -1 72 -4 72 -16 0 -8 5 -15 10 -15 15 0 12 27 -5
44 -18 18 -19 29 -2 23 13 -5 47 10 47 21 0 4 -78 9 -174 11 -174 3 -175 3
-169 -18 4 -16 1 -21 -13 -21 -12 0 -15 3 -8 8 9 5 9 10 0 17 -19 16 -34 18
-174 23 -130 4 -133 3 -123 -16z m145 -3 c-2 -4 0 -11 6 -14 6 -4 9 -1 8 6 -2
6 2 13 7 15 6 2 11 -5 12 -16 2 -17 -4 -20 -38 -20 -30 0 -39 4 -40 18 0 15
-1 15 -8 -2 -7 -19 -8 -19 -15 0 -8 19 -8 19 -15 0 -7 -19 -8 -19 -13 2 -6 21
-3 22 48 21 29 -1 51 -6 48 -10z m406 -23 c0 -19 -5 -21 -55 -18 -43 3 -55 8
-56 20 0 14 -2 13 -9 -3 -7 -17 -9 -17 -9 -2 -1 9 -5 17 -11 17 -5 0 -10 -8
-11 -17 0 -15 -2 -15 -9 2 -7 15 -9 16 -9 4 -1 -24 -51 -22 -51 1 0 17 11 18
110 18 105 -1 110 -1 110 -22z"/>
<path d="M240 1449 c0 -9 -31 -10 -115 -5 -79 5 -115 3 -115 -4 0 -6 10 -8 24
-4 18 4 27 1 35 -14 10 -19 8 -20 -29 -15 -33 5 -40 3 -40 -11 0 -14 3 -15 22
-5 16 9 23 9 26 0 2 -6 18 -11 35 -11 24 0 28 3 19 12 -20 20 -14 38 13 38 24
0 25 -2 24 -67 0 -38 -7 -182 -15 -322 -7 -139 -11 -257 -8 -262 14 -22 24 -5
24 41 0 54 5 60 26 33 12 -16 13 -17 14 -1 0 9 3 24 7 33 5 14 2 16 -13 11
-18 -5 -20 -1 -19 57 l0 62 31 0 c22 -1 30 3 27 12 -3 7 0 13 6 13 6 0 11 -6
11 -14 0 -8 5 -18 10 -21 18 -11 11 14 -10 35 -11 11 -20 22 -20 25 0 3 32 5
70 5 71 0 83 -7 54 -31 -13 -11 -17 -10 -25 4 -6 9 -20 17 -33 17 -19 0 -22
-4 -18 -25 4 -23 9 -25 55 -25 40 0 48 -3 39 -12 -7 -7 -12 -26 -12 -42 l0
-31 -25 38 c-40 58 -47 44 -15 -29 17 -36 30 -79 30 -95 0 -35 41 -62 62 -41
7 7 30 11 53 11 l40 -2 -40 -7 -40 -7 48 -2 c30 0 46 3 42 9 -8 13 187 14 201
1 5 -6 32 -13 59 -16 45 -6 48 -5 31 7 -17 13 -11 15 58 15 42 0 76 -3 76 -8
0 -5 -15 -6 -32 -4 l-33 5 33 -12 c70 -24 28 -33 -149 -33 -96 1 -158 -2 -139
-5 19 -4 202 -8 405 -8 204 -1 492 -5 641 -8 162 -4 273 -3 277 2 3 5 -11 8
-31 6 -27 -3 -44 2 -61 17 -29 25 -26 25 -51 4 -18 -16 -52 -17 -372 -14 -412
3 -443 5 -463 24 -12 12 -32 88 -28 107 0 3 4 30 7 60 5 42 4 51 -4 37 -8 -12
-18 -15 -36 -11 -18 5 -24 2 -24 -9 0 -9 -5 -39 -11 -67 l-11 -50 -50 0 c-47
0 -50 1 -45 23 4 12 9 41 13 65 l7 42 -101 0 -100 0 -18 -72 c-9 -40 -19 -67
-22 -60 -2 7 -21 12 -48 12 -24 0 -44 3 -44 8 0 4 7 29 15 56 20 65 20 65 -14
64 -27 -1 -28 -3 -24 -42 5 -55 -9 -128 -26 -134 -11 -4 -13 19 -9 131 5 148
5 147 -52 147 -42 0 -65 10 -48 21 9 6 6 9 -12 9 l-25 1 23 10 c13 5 28 7 32
4 5 -3 14 3 20 14 11 21 6 24 -55 33 -11 2 -21 11 -23 21 -3 13 3 17 25 17 15
0 35 -4 43 -10 9 -6 17 -5 21 2 4 7 13 7 27 -1 18 -10 19 -14 9 -41 -6 -16
-15 -30 -19 -30 -15 0 -8 -28 8 -34 24 -9 28 -2 34 65 l6 59 -36 10 c-118 31
-127 28 -132 -43 -2 -29 -1 -63 4 -76 10 -28 -14 -51 -44 -43 -18 4 -19 13
-16 100 2 82 5 95 22 102 18 6 18 7 2 13 -10 4 -22 5 -27 1 -5 -3 -9 0 -9 5 0
6 8 11 18 12 14 0 14 2 -3 9 -44 18 19 17 525 -5 85 -4 152 -4 148 0 -3 3 -22
8 -42 10 -20 2 -43 8 -50 15 -10 7 -16 8 -20 1 -7 -10 -52 -10 -326 3 -235 11
-225 9 -228 35 -2 13 1 28 6 33 9 9 173 12 222 4 23 -4 121 -10 345 -21 50 -3
111 -8 138 -11 31 -4 47 -2 47 5 0 6 7 11 16 11 9 0 14 -6 11 -12 -3 -10 32
-13 157 -13 141 -1 267 -6 451 -20 254 -19 925 -35 925 -22 0 4 9 7 20 7 11 0
20 -5 20 -10 0 -6 6 -10 13 -9 6 2 101 -1 211 -5 162 -7 200 -6 207 6 6 9 9
10 9 1 0 -7 5 -13 10 -13 6 0 10 6 10 14 0 18 -74 37 -132 33 -29 -2 -48 1
-48 7 0 6 -5 4 -10 -4 -9 -13 -11 -13 -20 0 -6 10 -10 11 -10 3 0 -7 -9 -13
-20 -13 -11 0 -20 6 -20 13 0 8 -3 8 -9 -2 -7 -11 -25 -12 -87 -6 -44 4 -107
7 -141 8 -55 0 -63 3 -66 21 -4 20 -4 20 -6 -1 -1 -22 -5 -23 -108 -25 -60 0
-115 0 -123 1 -18 3 -300 17 -520 25 -85 4 -175 9 -200 11 -25 3 -153 10 -285
15 -131 6 -244 15 -249 20 -6 6 -24 10 -42 10 -18 0 -35 5 -37 10 -3 6 -4 5
-3 -2 1 -7 20 -16 42 -19 l39 -6 -42 -2 c-23 0 -44 3 -47 8 -3 4 -36 6 -73 4
-96 -5 -323 8 -298 17 14 6 8 8 -22 8 -22 0 -46 3 -51 6 -6 3 -13 2 -17 -4 -3
-5 -33 -10 -66 -10 -38 0 -58 4 -54 10 3 6 -1 10 -9 10 -9 0 -16 -5 -16 -11z
m429 -551 c1 33 15 43 24 18 18 -47 -24 -71 -48 -28 l-15 27 6 -30 c4 -21 3
-26 -4 -16 -8 11 -11 10 -19 -4 -6 -11 -13 -13 -17 -7 -9 15 5 72 17 69 6 -1
12 4 13 11 4 27 6 25 24 -23 18 -47 18 -48 19 -17z"/>
<path d="M953 1316 c-13 -15 -7 -26 14 -26 7 0 13 9 13 20 0 23 -10 25 -27 6z"/>
<path d="M1010 1309 c0 -5 -4 -7 -10 -4 -5 3 -10 1 -10 -4 0 -7 36 -11 100
-11 56 0 100 4 100 9 0 6 -31 8 -74 5 -46 -3 -77 -1 -81 5 -8 14 -25 14 -25 0z"/>
<path d="M1204 1299 c-8 -14 20 -22 70 -21 28 0 57 -4 65 -11 12 -9 13 -9 7 1
-5 9 4 12 36 13 24 0 39 2 33 5 -20 8 -207 20 -211 13z"/>
<path d="M1465 1281 c-2 -5 12 -11 33 -14 20 -3 42 -6 47 -7 6 -1 26 -1 45 0
30 2 26 4 -20 11 -30 4 -65 10 -77 13 -13 2 -25 1 -28 -3z"/>
<path d="M2947 1268 l-7 -28 -105 4 c-58 2 -107 0 -111 -5 -3 -5 4 -9 15 -9
12 0 21 -6 21 -12 0 -9 4 -8 11 2 8 11 12 12 16 3 6 -15 43 -17 43 -3 0 6 5
10 11 10 5 0 7 -5 3 -12 -5 -8 0 -9 17 -4 55 17 72 19 65 7 -10 -15 19 -14 31
2 5 6 7 26 3 42 l-6 30 -7 -27z"/>
<path d="M1690 1270 c0 -11 3 -12 80 -15 30 -2 57 -3 60 -4 18 -4 402 -13 593
-13 125 -1 227 -5 227 -9 0 -5 15 -8 33 -8 19 1 25 3 13 6 -15 4 -16 7 -5 14
10 6 7 9 -11 9 -14 1 -52 3 -85 7 -63 6 -73 6 -195 4 -161 -3 -497 6 -509 14
-10 5 -12 4 -7 -4 6 -9 -11 -11 -71 -6 -43 3 -88 8 -100 11 -13 2 -23 0 -23
-6z"/>
<path d="M388 1245 c17 -8 60 -17 95 -19 34 -2 65 -5 69 -5 4 -1 1 -19 -8 -40
-14 -34 -14 -43 -1 -67 13 -26 14 -26 20 -5 3 11 1 21 -3 21 -5 0 -3 17 4 38
l13 37 127 -3 c116 -3 126 -2 127 15 0 14 2 15 6 3 3 -8 26 -33 50 -56 32 -30
43 -36 43 -23 0 26 13 30 50 18 20 -7 28 -15 22 -21 -6 -6 -6 -20 1 -39 14
-36 -3 -60 -28 -39 -13 11 -15 8 -16 -21 -1 -19 -4 -78 -8 -131 l-6 -97 29 6
c18 4 31 1 36 -7 7 -11 14 -11 32 -3 17 8 27 27 41 78 9 38 15 70 12 73 -3 3
-5 0 -5 -6 0 -7 -4 -12 -9 -12 -4 0 -6 12 -4 28 4 21 2 24 -6 12 -9 -13 -11
-13 -11 3 0 18 5 19 125 18 45 0 54 2 35 9 -23 7 -24 8 -3 9 12 1 25 6 28 11
12 20 23 9 21 -22 -1 -22 -7 -34 -19 -36 -21 -4 -23 -22 -2 -22 11 0 15 -11
14 -44 -2 -37 -5 -43 -21 -38 -13 3 -18 -1 -18 -16 0 -28 -10 -52 -22 -52 -6
0 -8 12 -5 26 3 18 1 22 -6 15 -6 -6 -17 -11 -25 -11 -17 0 -7 58 15 80 13 13
17 12 30 -7 21 -31 30 -29 25 7 -5 36 -18 46 -37 30 -8 -7 -30 -10 -50 -8 -23
3 -36 -1 -40 -10 -8 -22 -6 -42 5 -42 6 0 10 7 10 16 0 8 5 12 10 9 6 -3 10
-13 10 -22 0 -11 -7 -14 -24 -11 -20 4 -25 -1 -34 -28 l-10 -32 67 -12 c46 -8
157 -10 364 -5 215 4 303 3 312 -5 8 -6 24 -10 37 -7 20 4 19 4 -5 6 -32 1
-33 24 -1 30 27 5 48 41 23 41 -5 0 -8 -4 -4 -9 3 -5 1 -12 -4 -15 -17 -11
-25 17 -27 92 -4 109 -14 101 -14 -11 0 -80 -3 -97 -15 -97 -11 0 -15 12 -15
45 0 25 -4 45 -10 45 -5 0 -10 -18 -10 -40 0 -44 -20 -56 -21 -12 0 27 -1 27
-11 5 -13 -27 -28 -30 -28 -5 0 14 -2 15 -10 2 -8 -13 -10 -12 -10 3 0 25 -30
68 -43 60 -6 -3 -7 -1 -3 5 4 7 2 12 -5 12 -10 0 -10 3 -2 11 6 6 9 18 6 25
-4 10 4 14 30 14 20 0 39 5 42 10 3 6 16 10 28 10 19 0 20 -1 3 -13 -16 -12
-16 -13 4 -14 11 -1 18 2 15 7 -3 5 -1 11 4 14 5 4 12 -2 14 -11 3 -13 5 -12
6 6 1 17 -3 22 -14 17 -11 -4 -15 1 -15 17 0 13 -3 17 -8 11 -18 -28 -122 -26
-122 2 0 8 -10 14 -25 14 -25 0 -25 -1 -11 -29 11 -20 15 -53 13 -113 -3 -93
-9 -108 -38 -108 -15 0 -20 5 -17 23 2 12 9 21 16 19 8 -1 11 2 8 7 -4 5 -2
12 4 16 27 17 -11 23 -139 24 -87 1 -142 -2 -146 -9 -3 -5 3 -10 14 -10 15 0
19 -4 14 -17 -5 -13 -3 -15 13 -8 25 12 113 14 120 3 3 -4 11 -8 17 -8 7 0 6
4 -3 10 -13 8 -12 10 4 10 13 0 17 -5 13 -19 -4 -15 2 -20 26 -25 17 -3 28 -8
26 -11 -3 -2 -25 1 -49 6 -25 6 -67 7 -94 3 -34 -4 -47 -3 -42 5 5 7 -1 11
-13 11 -12 0 -21 -7 -21 -16 0 -9 -7 -14 -17 -12 -21 4 -33 60 -21 98 4 14 9
45 10 70 4 44 5 45 36 44 30 -1 48 21 20 24 -7 0 -33 4 -57 8 -29 5 -45 3 -50
-5 -5 -8 -40 -12 -99 -12 l-92 -1 0 -101 c0 -97 -10 -141 -26 -124 -12 12 -14
127 -6 287 l7 145 -315 3 c-173 2 -324 5 -335 8 -11 2 -5 -3 13 -11z m604 -40
c15 -20 7 -25 -41 -25 -33 0 -51 5 -54 14 -3 8 -3 17 0 20 10 9 87 2 95 -9z
m-3 -317 c0 -10 -3 -18 -9 -18 -5 0 -9 21 -9 48 1 42 2 44 9 17 4 -16 8 -38 9
-47z m681 -18 c0 -13 -7 -20 -19 -20 -14 0 -18 5 -14 20 3 11 12 20 19 20 8 0
14 -9 14 -20z"/>
<path d="M1057 1164 c1 -47 4 -88 7 -91 3 -4 6 2 6 12 0 39 34 125 49 126 9 0
62 1 118 3 154 4 136 16 -23 16 -77 0 -144 4 -149 10 -7 6 -9 -22 -8 -76z"/>
<path d="M1483 1233 c31 -2 83 -2 115 0 31 2 5 3 -58 3 -63 0 -89 -1 -57 -3z"/>
<path d="M1838 1168 c2 -35 1 -60 -2 -57 -3 3 -7 27 -8 55 -2 37 -7 50 -20 52
-14 3 -18 -4 -18 -32 0 -69 -12 -82 -74 -85 -50 -2 -56 0 -56 18 0 16 8 21 38
24 l37 4 -37 1 c-31 2 -38 6 -38 22 0 17 7 20 46 20 43 0 46 -2 41 -23 -4 -12
-2 -29 3 -37 7 -11 10 -5 10 22 0 20 6 39 13 41 6 3 -18 6 -55 6 l-68 1 0 -55
0 -55 64 0 c59 0 65 -2 69 -22 2 -13 5 -4 6 20 1 30 5 42 16 42 12 0 15 -13
15 -56 0 -49 2 -55 15 -44 11 9 15 35 15 106 0 52 -3 94 -7 94 -5 0 -6 -28 -5
-62z"/>
<path d="M2970 1095 c0 -71 2 -126 5 -124 7 7 8 239 1 246 -3 4 -6 -51 -6
-122z"/>
<path d="M1870 1139 c0 -41 4 -68 8 -62 5 8 22 11 47 8 29 -4 36 -2 25 5 -8 5
-25 10 -38 10 -18 0 -22 5 -20 28 1 15 -1 33 -5 39 -4 6 3 13 16 17 40 11 47
7 48 -26 l1 -33 7 30 c7 31 15 33 79 19 12 -2 22 0 22 5 0 5 9 9 20 8 11 -1
20 -7 20 -14 0 -9 7 -10 23 -4 13 5 30 5 37 1 9 -5 20 -4 27 2 10 8 13 4 13
-21 0 -30 -1 -31 -44 -31 -26 0 -46 5 -49 13 -3 7 -6 5 -6 -5 -1 -15 8 -18 59
-18 37 0 60 4 60 11 0 6 7 9 15 5 11 -4 15 2 15 27 0 32 0 32 45 29 28 -3 45
0 45 7 0 7 -38 11 -113 11 -63 0 -169 3 -235 7 l-122 6 0 -74z"/>
<path d="M2350 1191 c0 -6 5 -13 11 -17 8 -4 8 -9 0 -17 -6 -6 -11 -19 -11
-29 0 -15 9 -18 54 -18 30 0 61 -3 70 -6 13 -5 16 2 16 35 l0 41 48 2 c40 1
36 2 -23 8 -73 6 -88 4 -66 -9 7 -5 10 -14 7 -20 -4 -6 0 -11 8 -11 9 0 16 -5
16 -11 0 -6 -19 -9 -47 -7 -45 3 -65 23 -23 23 27 1 35 12 20 30 -13 16 -80
21 -80 6z"/>
<path d="M2605 1192 c-11 -7 -46 -57 -59 -82 -4 -8 6 1 23 20 17 19 31 40 32
45 0 6 4 -1 8 -15 11 -36 2 -60 -23 -61 -19 -1 -18 -2 4 -8 20 -5 26 -14 28
-44 l3 -37 -71 0 c-62 0 -71 -2 -66 -16 3 -9 6 -18 6 -20 0 -2 9 -4 21 -4 13
0 18 4 13 13 -6 10 -4 10 7 0 7 -7 30 -13 52 -13 l38 0 -7 -47 c-3 -27 -10
-52 -13 -58 -4 -5 -6 -20 -5 -32 1 -22 -1 -22 -84 -17 -47 3 -90 11 -97 17 -7
8 -11 46 -10 102 1 89 2 90 29 100 20 7 29 6 35 -4 6 -9 10 -7 14 8 5 19 1 21
-49 21 l-55 0 5 -112 c3 -62 2 -119 -3 -127 -11 -17 -41 -7 -41 14 0 9 -4 14
-9 11 -4 -3 -20 8 -35 24 -22 25 -34 30 -69 29 -46 -1 -42 -4 16 -14 23 -4 37
-11 37 -20 0 -8 9 -24 20 -35 11 -11 20 -25 20 -30 0 -5 21 -10 48 -11 81 -2
243 -24 241 -33 0 -5 5 -13 13 -17 7 -5 -131 -7 -307 -5 l-320 4 275 -8 c279
-8 404 -15 461 -27 23 -4 30 -3 25 5 -4 7 -16 12 -27 12 -10 0 -37 8 -59 17
l-40 18 0 222 c0 123 -3 223 -7 223 -5 0 -12 -4 -18 -8z"/>
<path d="M2930 1134 c0 -55 -3 -65 -15 -60 -8 3 -15 1 -15 -4 0 -6 8 -10 19
-10 13 0 19 -7 19 -25 0 -27 -31 -36 -42 -12 -4 6 -4 -52 -1 -131 5 -134 4
-143 -12 -138 -10 3 -34 8 -55 11 -28 5 -38 13 -44 33 l-7 27 -6 -25 c-4 -14
-15 -26 -24 -28 -13 -3 -17 4 -17 27 0 17 -4 31 -10 31 -5 0 -10 -4 -10 -10 0
-5 -7 -10 -15 -10 -9 0 -15 9 -15 21 0 15 4 19 16 15 9 -3 33 -9 53 -12 l37
-6 -5 39 c-4 33 -5 35 -11 13 -4 -16 -13 -25 -25 -25 -16 0 -19 6 -17 32 2 22
-3 37 -19 51 -11 11 -18 25 -14 31 3 6 1 11 -4 11 -6 0 -11 5 -11 10 0 18 18
11 25 -10 5 -15 15 -20 39 -20 33 0 33 1 40 57 7 60 0 78 -27 67 -22 -8 -22
-24 -1 -24 12 0 14 -5 9 -17 -4 -10 -7 -26 -7 -35 1 -13 -7 -18 -24 -18 -24 0
-32 14 -14 25 19 12 11 45 -10 45 -11 0 -20 5 -20 10 0 6 -4 10 -8 10 -4 0 -6
-16 -4 -35 3 -28 1 -35 -13 -35 -13 0 -16 -6 -11 -22 3 -13 6 -30 6 -38 0 -13
1 -13 10 0 6 9 10 10 10 3 0 -6 -5 -15 -10 -18 -6 -4 -8 -15 -5 -26 4 -10 3
-24 -1 -31 -5 -7 -8 -33 -9 -59 l0 -46 95 -16 c52 -9 118 -18 147 -20 67 -5
62 -39 54 401 -1 84 -21 80 -21 -4z m0 -224 c0 -29 -4 -40 -15 -40 -18 0 -21
50 -3 68 17 17 18 16 18 -28z m10 -105 c0 -45 -12 -60 -24 -29 -12 31 -7 74 9
74 11 0 15 -12 15 -45z"/>
<path d="M787 1176 c-3 -8 5 -13 24 -13 16 0 29 5 29 11 0 15 -48 17 -53 2z"/>
<path d="M2703 1178 c-2 -5 -15 -8 -27 -8 -19 0 -23 -5 -22 -30 1 -16 6 -30
13 -30 6 0 14 -6 16 -12 3 -8 6 -6 6 5 1 13 10 17 41 17 27 0 45 6 59 21 20
22 41 19 41 -7 0 -8 7 -14 15 -14 19 0 19 34 0 50 -16 14 -134 20 -142 8z"/>
<path d="M1240 1135 l0 -41 38 4 c22 3 46 14 59 28 13 14 34 24 49 24 42 0 20
12 -25 14 -22 1 -38 -1 -35 -6 3 -4 0 -8 -5 -8 -6 0 -11 4 -11 9 0 5 -16 11
-35 13 -35 4 -35 4 -35 -37z"/>
<path d="M1420 1160 c0 -5 6 -10 13 -10 6 0 22 -3 35 -6 16 -5 22 -2 22 10 0
12 -9 16 -35 16 -19 0 -35 -4 -35 -10z"/>
<path d="M653 1143 c26 -2 67 -2 90 0 23 2 2 3 -48 3 -49 0 -68 -1 -42 -3z"/>
<path d="M860 1130 c0 -5 -9 -10 -19 -10 -14 0 -18 -5 -14 -20 4 -14 0 -20
-11 -20 -9 0 -16 -5 -16 -12 0 -9 -3 -9 -12 0 -15 15 -32 16 -23 2 4 -6 -6
-10 -22 -10 -19 0 -24 3 -15 9 9 5 -16 10 -65 14 -59 4 -82 2 -93 -9 -12 -12
-11 -14 8 -14 13 0 22 -6 22 -15 0 -8 5 -15 11 -15 5 0 7 -5 4 -11 -5 -7 -13
-5 -25 6 -10 9 -23 14 -29 11 -5 -4 -11 6 -13 21 -2 20 -9 29 -25 31 -16 2
-23 -2 -23 -12 0 -12 -11 -16 -50 -16 -43 0 -50 -3 -50 -20 0 -13 5 -17 14
-14 8 3 19 -3 26 -15 13 -25 27 -27 32 -4 5 26 98 26 98 1 0 -16 11 -18 100
-18 82 0 100 3 100 15 0 11 12 15 49 15 42 0 51 3 56 21 5 13 2 25 -6 30 -11
6 -10 9 2 14 11 4 14 14 11 31 -4 23 -22 35 -22 14z"/>
<path d="M672 1125 c3 -3 21 -6 41 -7 20 -1 38 -7 41 -15 6 -15 46 -18 46 -3
0 6 -9 10 -19 10 -11 0 -23 5 -26 10 -3 6 -25 10 -47 10 -23 0 -39 -2 -36 -5z"/>
<path d="M1373 1117 c-2 -4 -9 -5 -14 -2 -9 6 -36 -41 -28 -49 2 -2 57 -6 122
-8 125 -3 126 -3 107 46 -9 26 -11 26 -96 24 -47 -2 -88 -6 -91 -11z"/>
<path d="M2001 1086 c-31 -49 -20 -66 43 -66 29 0 56 -3 59 -6 4 -4 21 -8 38
-9 21 -2 27 0 18 6 -7 4 -10 11 -6 16 4 4 17 2 27 -5 11 -7 35 -12 54 -12 30
0 35 -4 41 -30 4 -16 11 -30 15 -30 5 0 7 7 4 15 -4 8 -3 32 1 53 6 31 9 34
15 17 5 -11 9 -35 9 -52 1 -32 21 -49 21 -18 0 8 8 15 18 16 13 0 12 2 -5 9
-29 12 -31 50 -3 50 11 0 20 5 20 10 0 6 -27 10 -60 10 -33 0 -60 -4 -60 -10
0 -5 5 -10 10 -10 6 0 10 -4 10 -10 0 -23 -19 -7 -30 24 -6 19 -18 37 -26 40
-9 3 -57 6 -107 6 -63 0 -87 3 -77 10 9 6 10 10 3 10 -6 0 -21 -15 -32 -34z
m187 -10 c28 -17 7 -23 -78 -21 -91 1 -119 9 -82 22 26 10 144 9 160 -1z"/>
<path d="M905 1065 c-11 -25 -23 -45 -26 -45 -4 0 -9 -7 -13 -15 -4 -10 1 -15
14 -15 11 0 20 7 20 15 0 8 7 15 15 15 11 0 15 12 15 45 0 25 -1 45 -3 45 -1
0 -11 -20 -22 -45z"/>
<path d="M2812 1095 c-11 -13 -10 -15 6 -15 11 0 25 7 32 15 10 12 9 15 -6 15
-11 -1 -25 -7 -32 -15z"/>
<path d="M1894 1065 c-4 -8 -10 -13 -14 -10 -8 5 -19 -155 -12 -176 2 -5 12 0
23 12 15 18 21 20 34 9 12 -10 15 -10 15 4 0 16 -10 20 -42 17 -10 -1 -18 3
-18 8 0 6 5 11 10 11 13 0 13 47 0 55 -7 4 -3 14 10 25 21 18 28 36 9 24 -8
-4 -9 0 -4 15 7 24 -2 29 -11 6z"/>
<path d="M1380 1005 c0 -6 27 -10 62 -10 51 0 62 -3 60 -15 -2 -8 0 -11 4 -7
4 4 9 14 10 22 1 10 -15 14 -67 17 -42 2 -69 -1 -69 -7z"/>
<path d="M1953 1004 c-3 -9 -2 -24 4 -33 6 -9 7 -25 2 -36 -12 -32 -10 -55 6
-55 8 0 15 5 15 11 0 5 4 8 9 5 4 -3 28 -1 52 4 l44 9 -50 -2 c-50 -2 -50 -2
-53 31 -2 24 1 32 12 32 9 0 16 -4 16 -10 0 -5 -5 -10 -10 -10 -7 0 -6 -5 1
-13 10 -10 40 -12 121 -9 75 3 108 1 108 -7 0 -6 7 -11 15 -11 8 0 15 5 15 11
0 5 5 7 10 4 15 -9 12 7 -5 29 -15 20 -15 20 -15 0 -1 -18 -1 -18 -14 -1 -17
22 -76 24 -76 2 0 -11 -11 -15 -42 -15 -34 1 -39 3 -25 11 23 14 22 29 -4 29
-13 0 -18 -4 -13 -12 5 -8 1 -8 -10 1 -15 13 -19 13 -28 0 -7 -11 -11 -11 -15
-1 -2 6 -17 12 -31 12 -25 1 -26 2 -9 14 16 12 16 14 1 20 -22 9 -24 8 -31
-10z"/>
<path d="M1430 950 c0 -6 17 -8 42 -5 58 8 61 15 5 15 -26 0 -47 -4 -47 -10z"/>
<path d="M2968 840 c-2 -81 0 -111 9 -115 10 -3 13 23 12 110 0 63 -4 115 -9
115 -5 0 -10 -49 -12 -110z"/>
<path d="M1438 913 c18 -2 45 -2 60 0 15 2 0 4 -33 4 -33 0 -45 -2 -27 -4z"/>
<path d="M2135 873 c35 -3 45 -7 35 -13 -10 -7 -11 -10 -2 -10 6 0 12 -7 12
-15 0 -17 -16 -21 -22 -5 -3 9 -22 12 -78 11 -8 -1 -34 2 -57 5 -32 5 -43 3
-43 -7 0 -11 -3 -11 -10 1 -5 8 -10 11 -10 5 0 -5 -5 -3 -11 5 -9 12 -11 13
-16 1 -3 -7 -14 -22 -25 -33 -11 -11 -17 -23 -13 -26 4 -4 91 -7 195 -7 106 0
186 -4 183 -9 -3 -5 0 -7 8 -4 8 3 16 13 17 23 3 11 0 15 -8 10 -17 -11 -62
35 -50 50 8 9 6 15 -6 19 -9 4 -19 4 -22 1 -3 -3 0 -5 6 -5 7 0 12 -4 12 -10
0 -5 -7 -10 -15 -10 -8 0 -15 7 -15 15 0 12 -12 15 -57 13 l-58 -2 50 -3z"/>
<path d="M1088 773 c18 -2 45 -2 60 0 15 2 0 4 -33 4 -33 0 -45 -2 -27 -4z"/>
<path d="M183 753 c59 -2 154 -2 210 0 56 1 8 3 -108 3 -116 0 -161 -2 -102
-3z"/>
<path d="M1910 709 l-45 -5 35 -7 c19 -4 46 -6 60 -5 43 2 192 -13 209 -22 20
-10 101 -29 101 -23 0 5 -46 23 -90 35 -60 17 -223 33 -270 27z"/>
<path d="M1702 687 c23 -24 56 -29 121 -21 l62 8 -45 6 c-135 21 -153 22 -138
7z"/>
<path d="M2275 666 c17 -9 23 -16 15 -16 -8 -1 -2 -6 15 -11 16 -4 32 -5 35 0
3 5 14 11 25 14 11 4 3 5 -17 4 -20 -2 -34 1 -32 5 3 4 -1 8 -8 8 -7 0 -24 3
-38 5 -22 5 -21 3 5 -9z"/>
<path d="M1960 661 c0 -8 139 -35 147 -28 4 4 -117 37 -137 37 -5 0 -10 -4
-10 -9z"/>
<path d="M1630 634 c19 -8 55 -17 80 -20 43 -4 41 -3 -20 16 -76 23 -110 26
-60 4z"/>
<path d="M2405 640 c11 -5 14 -9 7 -9 -7 -1 -11 -5 -8 -9 6 -10 36 -9 54 2 8
5 12 1 12 -11 1 -17 1 -17 14 0 14 17 32 24 21 8 -3 -5 -1 -12 5 -16 5 -3 10
-1 10 4 0 6 17 11 38 12 l37 1 -40 8 c-69 13 -172 20 -150 10z"/>
<path d="M1553 633 c9 -2 17 -8 17 -13 0 -5 14 -11 31 -15 17 -4 50 -15 73
-25 56 -25 126 -35 126 -20 0 7 -7 10 -15 7 -8 -4 -17 -1 -21 5 -5 7 -2 8 6 3
9 -5 11 -4 6 3 -4 7 -24 12 -44 12 -35 1 -135 30 -149 44 -3 3 -16 5 -27 5
-17 -1 -18 -2 -3 -6z"/>
<path d="M2636 631 c8 -7 56 -21 127 -36 15 -3 27 -1 27 4 0 5 15 5 36 1 23
-5 33 -5 27 1 -5 5 -43 14 -84 19 -41 5 -89 11 -108 14 -19 3 -30 2 -25 -3z"/>
<path d="M2135 621 c11 -4 38 -11 60 -14 25 -4 33 -4 20 2 -11 4 -38 11 -60
14 -25 4 -33 4 -20 -2z"/>
<path d="M2205 580 c-28 -6 -27 -7 13 -11 24 -3 45 -2 48 2 6 11 -28 16 -61 9z"/>
<path d="M1986 570 c7 -6 46 -16 88 -20 42 -5 90 -13 108 -18 18 -5 38 -7 45
-5 6 2 13 -3 16 -12 4 -12 5 -12 3 2 -1 18 -61 33 -191 48 -32 3 -64 9 -70 12
-5 3 -5 0 1 -7z"/>
<path d="M2836 571 c-4 -7 -2 -9 7 -5 8 3 18 0 22 -5 3 -6 10 -9 13 -7 4 2 33
-2 65 -9 47 -11 57 -11 57 0 0 22 -152 47 -164 26z"/>
<path d="M1835 563 c11 -11 74 -28 140 -38 93 -15 135 -27 129 -37 -4 -6 -2
-8 4 -4 6 3 13 2 17 -3 3 -6 12 -8 20 -4 8 3 15 1 15 -4 0 -4 14 -9 30 -9 17
-1 30 3 30 9 0 6 -3 8 -6 5 -3 -3 -35 5 -72 18 -37 14 -105 31 -152 40 -47 8
-94 17 -105 20 -54 15 -60 16 -50 7z"/>
<path d="M1722 513 c18 -3 25 -9 21 -19 -3 -8 0 -14 7 -14 6 0 8 5 5 10 -3 6
-1 10 5 10 6 0 8 5 5 10 -3 6 -21 9 -38 9 -30 -2 -30 -2 -5 -6z"/>
<path d="M1940 490 c0 -17 93 -62 135 -64 6 -1 16 -8 23 -16 12 -13 13 -13 6
0 -6 12 -5 13 7 4 8 -6 28 -14 44 -18 24 -6 28 -5 18 5 -10 10 -10 16 0 28 9
11 5 10 -14 -3 -24 -15 -27 -15 -33 -1 -3 9 -10 14 -14 11 -5 -3 -20 1 -35 9
-15 8 -27 12 -27 10 0 -3 -25 6 -55 20 -30 13 -55 20 -55 15z"/>
<path d="M2525 483 c14 -15 65 -21 100 -13 l30 8 -30 1 c-16 1 -48 4 -70 7
-27 5 -37 3 -30 -3z"/>
<path d="M1820 470 c-19 -12 -13 -16 33 -24 23 -4 37 -3 37 4 0 5 -14 10 -31
10 -17 0 -28 4 -24 10 8 12 4 12 -15 0z"/>
<path d="M1960 411 c0 -5 14 -14 31 -20 25 -9 29 -14 24 -33 -5 -20 -4 -21 5
-5 13 21 32 23 24 2 -7 -17 11 -21 22 -4 3 6 0 17 -7 24 -20 17 -99 47 -99 36z"/>
<path d="M2520 394 c0 -13 8 -15 71 -18 15 -1 33 -7 42 -14 11 -9 17 -10 22
-2 8 13 9 12 -29 28 -19 8 -32 9 -40 3 -8 -7 -21 -6 -39 4 -23 12 -27 12 -27
-1z"/>
<path d="M2675 382 c-2 -3 0 -12 5 -22 5 -10 6 -20 2 -24 -9 -10 30 5 46 17 6
5 12 13 12 17 0 9 -57 19 -65 12z"/>
<path d="M2905 375 c42 -13 60 -10 35 5 -8 6 -28 9 -45 9 -29 -1 -28 -2 10
-14z"/>
<path d="M2746 363 c-4 -9 5 -13 30 -13 24 0 33 -4 28 -12 -4 -7 -3 -8 4 -4
19 11 2 34 -28 38 -18 3 -31 -1 -34 -9z"/>
<path d="M2837 345 c-4 -10 -1 -12 10 -8 12 5 14 3 8 -8 -7 -11 -6 -12 6 -2
12 10 20 9 37 -3 12 -8 22 -11 22 -6 0 10 -26 25 -45 27 -5 0 -15 4 -21 8 -7
4 -14 0 -17 -8z"/>
<path d="M2070 339 c0 -5 9 -10 20 -10 11 -1 25 -2 32 -3 6 -1 13 4 15 10 2 5
-12 10 -32 11 -19 1 -35 -3 -35 -8z"/>
<path d="M2494 319 c14 -11 23 -25 20 -31 -4 -6 3 -8 17 -6 27 4 38 28 12 28
-10 0 -27 7 -37 15 -31 23 -42 18 -12 -6z"/>
<path d="M2317 324 c-9 -16 5 -31 36 -36 30 -6 33 -1 13 25 -13 17 -14 17 -21
0 -7 -17 -8 -17 -14 1 -4 11 -10 15 -14 10z"/>
<path d="M2582 280 c7 -11 23 -20 35 -20 17 0 21 -4 16 -17 -5 -15 -3 -14 10
2 9 11 17 23 17 26 0 7 -30 18 -68 25 -21 4 -21 3 -10 -16z"/>
<path d="M2660 255 c-10 -12 -10 -15 1 -16 8 -1 24 -3 37 -4 12 -1 22 2 22 8
0 5 -9 7 -19 4 -14 -3 -18 -1 -14 9 7 19 -11 18 -27 -1z"/>
<path d="M2310 219 c0 -16 19 -29 41 -29 5 0 9 8 9 17 0 13 -3 14 -12 5 -9 -9
-14 -7 -24 6 -12 15 -13 15 -14 1z"/>
<path d="M2437 193 c4 -11 3 -14 -5 -9 -17 10 -15 -9 2 -23 10 -9 15 -8 20 4
6 18 -2 45 -15 45 -4 0 -5 -7 -2 -17z"/>
<path d="M2474 181 c4 -6 2 -11 -5 -11 -22 0 4 -18 32 -24 20 -3 26 0 25 10
-1 8 -6 15 -12 15 -5 1 -17 5 -28 11 -13 7 -16 7 -12 -1z"/>
<path d="M2540 144 c0 -18 17 -27 26 -13 4 8 9 7 15 -2 10 -17 29 -19 47 -6
12 9 17 -7 13 -40 -1 -7 3 -13 10 -13 6 0 9 8 6 20 -6 25 2 26 18 3 12 -16 13
-14 8 9 -3 18 -10 25 -19 21 -8 -3 -14 0 -14 6 0 7 -11 9 -29 6 -18 -3 -33 0
-38 7 -11 17 -43 19 -43 2z"/>
<path d="M2921 126 c-1 -15 -4 -16 -16 -6 -9 7 -15 8 -15 2 0 -11 26 -25 55
-27 11 -1 29 -5 40 -10 16 -5 15 -3 -5 14 -29 24 -40 26 -41 9 -1 -7 -5 -2 -9
12 -6 19 -8 20 -9 6z"/>
<path d="M2691 123 c0 -4 4 -17 9 -28 9 -20 9 -20 9 0 1 12 4 16 9 9 4 -6 14
-14 22 -17 12 -4 11 -6 -2 -6 -22 -1 -24 -21 -3 -21 8 0 15 5 15 11 0 5 6 7
13 3 9 -6 9 -5 0 7 -15 18 -73 52 -72 42z"/>
</g>
</svg>
